<mxfile host="65bd71144e">
    <diagram id="ELHR5L6TcBTb3WxxxYSB" name="ページ1">
        <mxGraphModel dx="486" dy="307" grid="1" gridSize="10" guides="1" tooltips="1" connect="1" arrows="1" fold="1" page="1" pageScale="1" pageWidth="827" pageHeight="1169" math="0" shadow="0">
            <root>
                <mxCell id="0"/>
                <mxCell id="1" parent="0"/>
                <mxCell id="9" value="クライアント" style="shape=umlLifeline;perimeter=lifelinePerimeter;whiteSpace=wrap;html=1;container=1;collapsible=0;recursiveResize=0;outlineConnect=0;" parent="1" vertex="1">
                    <mxGeometry x="250" y="100" width="100" height="830" as="geometry"/>
                </mxCell>
                <mxCell id="18" value="" style="edgeStyle=elbowEdgeStyle;fontSize=12;html=1;endArrow=blockThin;endFill=1;" parent="9" edge="1">
                    <mxGeometry width="160" relative="1" as="geometry">
                        <mxPoint x="50" y="90" as="sourcePoint"/>
                        <mxPoint x="270" y="90" as="targetPoint"/>
                    </mxGeometry>
                </mxCell>
                <mxCell id="35" value="" style="html=1;points=[];perimeter=orthogonalPerimeter;" parent="9" vertex="1">
                    <mxGeometry x="45" y="80" width="10" height="170" as="geometry"/>
                </mxCell>
                <mxCell id="47" value="" style="html=1;points=[];perimeter=orthogonalPerimeter;" parent="9" vertex="1">
                    <mxGeometry x="45" y="310" width="10" height="520" as="geometry"/>
                </mxCell>
                <mxCell id="72" value="stateの検証など" style="edgeStyle=orthogonalEdgeStyle;html=1;align=left;spacingLeft=2;endArrow=block;rounded=0;entryX=1;entryY=0;fontSize=8;" parent="9" edge="1">
                    <mxGeometry relative="1" as="geometry">
                        <mxPoint x="55" y="509.9999999999999" as="sourcePoint"/>
                        <Array as="points">
                            <mxPoint x="85" y="510"/>
                        </Array>
                        <mxPoint x="60" y="529.9999999999999" as="targetPoint"/>
                    </mxGeometry>
                </mxCell>
                <mxCell id="10" value="認可サーバ" style="shape=umlLifeline;perimeter=lifelinePerimeter;whiteSpace=wrap;html=1;container=1;collapsible=0;recursiveResize=0;outlineConnect=0;lifelineDashed=0;" parent="1" vertex="1">
                    <mxGeometry x="470" y="100" width="105" height="780" as="geometry"/>
                </mxCell>
                <mxCell id="12" value="" style="html=1;points=[];perimeter=orthogonalPerimeter;" parent="10" vertex="1">
                    <mxGeometry x="45" y="90" width="10" height="130" as="geometry"/>
                </mxCell>
                <mxCell id="13" value="&lt;font style=&quot;font-size: 8px;&quot;&gt;認可エンドポイント&lt;br&gt;/authorize&lt;br&gt;&lt;/font&gt;" style="text;html=1;align=center;verticalAlign=middle;resizable=0;points=[];autosize=1;strokeColor=none;fillColor=none;" parent="10" vertex="1">
                    <mxGeometry x="-45" y="85" width="100" height="40" as="geometry"/>
                </mxCell>
                <mxCell id="31" value="" style="edgeStyle=elbowEdgeStyle;fontSize=12;html=1;endArrow=blockThin;endFill=1;exitX=1.019;exitY=0.675;exitDx=0;exitDy=0;exitPerimeter=0;entryX=0.212;entryY=0.005;entryDx=0;entryDy=0;entryPerimeter=0;" parent="10" edge="1">
                    <mxGeometry width="160" relative="1" as="geometry">
                        <mxPoint x="54.999999999999886" y="149.7" as="sourcePoint"/>
                        <mxPoint x="237.72000000000014" y="149.55" as="targetPoint"/>
                    </mxGeometry>
                </mxCell>
                <mxCell id="32" value="redirect_uri" style="edgeLabel;html=1;align=center;verticalAlign=middle;resizable=0;points=[];fontSize=8;" parent="31" vertex="1" connectable="0">
                    <mxGeometry x="-0.1325" y="1" relative="1" as="geometry">
                        <mxPoint as="offset"/>
                    </mxGeometry>
                </mxCell>
                <mxCell id="37" value="" style="edgeStyle=elbowEdgeStyle;fontSize=12;html=1;endArrow=blockThin;endFill=1;exitX=1.019;exitY=0.675;exitDx=0;exitDy=0;exitPerimeter=0;entryX=0.212;entryY=0.005;entryDx=0;entryDy=0;entryPerimeter=0;" parent="10" edge="1">
                    <mxGeometry width="160" relative="1" as="geometry">
                        <mxPoint x="55" y="190.15000000000003" as="sourcePoint"/>
                        <mxPoint x="237.72000000000025" y="189.99999999999994" as="targetPoint"/>
                    </mxGeometry>
                </mxCell>
                <mxCell id="38" value="request_id: query を保存" style="edgeLabel;html=1;align=center;verticalAlign=middle;resizable=0;points=[];fontSize=8;" parent="37" vertex="1" connectable="0">
                    <mxGeometry x="-0.1325" y="1" relative="1" as="geometry">
                        <mxPoint as="offset"/>
                    </mxGeometry>
                </mxCell>
                <mxCell id="50" value="" style="html=1;points=[];perimeter=orthogonalPerimeter;" parent="10" vertex="1">
                    <mxGeometry x="47.5" y="340" width="10" height="150" as="geometry"/>
                </mxCell>
                <mxCell id="52" value="&lt;font style=&quot;font-size: 8px;&quot;&gt;認可決定エンドポイント&lt;br&gt;/approve&lt;br&gt;&lt;/font&gt;" style="text;html=1;align=center;verticalAlign=middle;resizable=0;points=[];autosize=1;strokeColor=none;fillColor=none;" parent="10" vertex="1">
                    <mxGeometry x="-55" y="340" width="110" height="40" as="geometry"/>
                </mxCell>
                <mxCell id="66" value="認可コード生成(=code)" style="edgeStyle=orthogonalEdgeStyle;html=1;align=left;spacingLeft=2;endArrow=block;rounded=0;entryX=1;entryY=0;fontSize=8;" parent="10" edge="1">
                    <mxGeometry relative="1" as="geometry">
                        <mxPoint x="57.5" y="420" as="sourcePoint"/>
                        <Array as="points">
                            <mxPoint x="87.5" y="420"/>
                        </Array>
                        <mxPoint x="62.5" y="440" as="targetPoint"/>
                    </mxGeometry>
                </mxCell>
                <mxCell id="68" value="" style="edgeStyle=elbowEdgeStyle;fontSize=12;html=1;endArrow=blockThin;endFill=1;entryX=0.212;entryY=0.005;entryDx=0;entryDy=0;entryPerimeter=0;" parent="10" edge="1">
                    <mxGeometry width="160" relative="1" as="geometry">
                        <mxPoint x="57.5" y="460" as="sourcePoint"/>
                        <mxPoint x="235.62000000000035" y="460" as="targetPoint"/>
                    </mxGeometry>
                </mxCell>
                <mxCell id="69" value="&lt;span style=&quot;background-color: rgb(42, 37, 47);&quot;&gt;codeをキーにqueryを保存&lt;/span&gt;" style="edgeLabel;html=1;align=center;verticalAlign=middle;resizable=0;points=[];fontSize=8;" parent="68" vertex="1" connectable="0">
                    <mxGeometry x="-0.1325" y="1" relative="1" as="geometry">
                        <mxPoint as="offset"/>
                    </mxGeometry>
                </mxCell>
                <mxCell id="89" value="アクセストークン生成(=access_token)" style="edgeStyle=orthogonalEdgeStyle;html=1;align=left;spacingLeft=2;endArrow=block;rounded=0;entryX=1;entryY=0;fontSize=8;" parent="10" edge="1">
                    <mxGeometry relative="1" as="geometry">
                        <mxPoint x="57.5" y="710.0000000000001" as="sourcePoint"/>
                        <Array as="points">
                            <mxPoint x="87.5" y="710"/>
                        </Array>
                        <mxPoint x="62.5" y="730.0000000000001" as="targetPoint"/>
                    </mxGeometry>
                </mxCell>
                <mxCell id="15" value="" style="shape=umlLifeline;participant=umlActor;perimeter=lifelinePerimeter;whiteSpace=wrap;html=1;container=1;collapsible=0;recursiveResize=0;verticalAlign=top;spacingTop=36;outlineConnect=0;fontSize=10;" parent="1" vertex="1">
                    <mxGeometry x="150" y="100" width="20" height="370" as="geometry"/>
                </mxCell>
                <mxCell id="40" value="" style="html=1;points=[];perimeter=orthogonalPerimeter;" parent="15" vertex="1">
                    <mxGeometry x="5" y="60" width="10" height="280" as="geometry"/>
                </mxCell>
                <mxCell id="20" value="DB" style="shape=umlLifeline;perimeter=lifelinePerimeter;whiteSpace=wrap;html=1;container=1;collapsible=0;recursiveResize=0;outlineConnect=0;lifelineDashed=0;" parent="1" vertex="1">
                    <mxGeometry x="660" y="100" width="105" height="780" as="geometry"/>
                </mxCell>
                <mxCell id="27" value="" style="html=1;points=[];perimeter=orthogonalPerimeter;" parent="20" vertex="1">
                    <mxGeometry x="47.5" y="110" width="10" height="20" as="geometry"/>
                </mxCell>
                <mxCell id="30" value="" style="html=1;points=[];perimeter=orthogonalPerimeter;" parent="20" vertex="1">
                    <mxGeometry x="47.5" y="150" width="10" height="20" as="geometry"/>
                </mxCell>
                <mxCell id="36" value="" style="html=1;points=[];perimeter=orthogonalPerimeter;" parent="20" vertex="1">
                    <mxGeometry x="47.5" y="190" width="10" height="20" as="geometry"/>
                </mxCell>
                <mxCell id="56" value="" style="html=1;points=[];perimeter=orthogonalPerimeter;" parent="20" vertex="1">
                    <mxGeometry x="47.5" y="358.45" width="10" height="20" as="geometry"/>
                </mxCell>
                <mxCell id="58" value="" style="html=1;points=[];perimeter=orthogonalPerimeter;" parent="20" vertex="1">
                    <mxGeometry x="47.5" y="400" width="12.5" height="20" as="geometry"/>
                </mxCell>
                <mxCell id="67" value="" style="html=1;points=[];perimeter=orthogonalPerimeter;" parent="20" vertex="1">
                    <mxGeometry x="47.5" y="460" width="12.5" height="20" as="geometry"/>
                </mxCell>
                <mxCell id="86" value="" style="edgeStyle=elbowEdgeStyle;fontSize=12;html=1;endArrow=blockThin;endFill=1;entryX=0.212;entryY=0.005;entryDx=0;entryDy=0;entryPerimeter=0;" parent="20" edge="1">
                    <mxGeometry width="160" relative="1" as="geometry">
                        <mxPoint x="-132.5" y="680.0000000000001" as="sourcePoint"/>
                        <mxPoint x="45.620000000000346" y="680.0000000000001" as="targetPoint"/>
                    </mxGeometry>
                </mxCell>
                <mxCell id="87" value="&lt;span style=&quot;background-color: rgb(42, 37, 47);&quot;&gt;DELETE code&lt;/span&gt;" style="edgeLabel;html=1;align=center;verticalAlign=middle;resizable=0;points=[];fontSize=8;" parent="86" vertex="1" connectable="0">
                    <mxGeometry x="-0.1325" y="1" relative="1" as="geometry">
                        <mxPoint as="offset"/>
                    </mxGeometry>
                </mxCell>
                <mxCell id="88" value="" style="html=1;points=[];perimeter=orthogonalPerimeter;" parent="20" vertex="1">
                    <mxGeometry x="47.5" y="680" width="12.5" height="20" as="geometry"/>
                </mxCell>
                <mxCell id="90" value="" style="html=1;points=[];perimeter=orthogonalPerimeter;" parent="20" vertex="1">
                    <mxGeometry x="47.5" y="750" width="12.5" height="20" as="geometry"/>
                </mxCell>
                <mxCell id="26" value="" style="edgeStyle=elbowEdgeStyle;fontSize=12;html=1;endArrow=blockThin;endFill=1;entryX=0.212;entryY=0.005;entryDx=0;entryDy=0;entryPerimeter=0;exitX=1.009;exitY=0.63;exitDx=0;exitDy=0;exitPerimeter=0;" parent="1" source="13" target="27" edge="1">
                    <mxGeometry width="160" relative="1" as="geometry">
                        <mxPoint x="530" y="210" as="sourcePoint"/>
                        <mxPoint x="640" y="210" as="targetPoint"/>
                    </mxGeometry>
                </mxCell>
                <mxCell id="28" value="client_id" style="text;html=1;align=center;verticalAlign=middle;resizable=0;points=[];autosize=1;strokeColor=none;fillColor=none;fontSize=8;" parent="1" vertex="1">
                    <mxGeometry x="590" y="190" width="50" height="20" as="geometry"/>
                </mxCell>
                <mxCell id="29" value="Client" style="html=1;verticalAlign=bottom;endArrow=open;dashed=1;endSize=8;fontSize=8;exitX=0.03;exitY=0.922;exitDx=0;exitDy=0;exitPerimeter=0;" parent="1" source="27" edge="1">
                    <mxGeometry relative="1" as="geometry">
                        <mxPoint x="700" y="230" as="sourcePoint"/>
                        <mxPoint x="527" y="230" as="targetPoint"/>
                    </mxGeometry>
                </mxCell>
                <mxCell id="33" value="return" style="html=1;verticalAlign=bottom;endArrow=open;dashed=1;endSize=8;fontSize=8;exitX=0.03;exitY=0.922;exitDx=0;exitDy=0;exitPerimeter=0;" parent="1" edge="1">
                    <mxGeometry relative="1" as="geometry">
                        <mxPoint x="705.4" y="270.00000000000006" as="sourcePoint"/>
                        <mxPoint x="524.6" y="271.56" as="targetPoint"/>
                    </mxGeometry>
                </mxCell>
                <mxCell id="34" value="認可用画面(Client, request_id, scope))" style="html=1;verticalAlign=bottom;endArrow=open;dashed=1;endSize=8;fontSize=8;exitX=0.5;exitY=1;exitDx=0;exitDy=0;exitPerimeter=0;" parent="1" source="12" target="9" edge="1">
                    <mxGeometry relative="1" as="geometry">
                        <mxPoint x="503.80000000000007" y="290" as="sourcePoint"/>
                        <mxPoint x="322.9999999999999" y="291.55999999999995" as="targetPoint"/>
                    </mxGeometry>
                </mxCell>
                <mxCell id="39" value="&lt;div style=&quot;text-align: left;&quot;&gt;&lt;span style=&quot;background-color: initial;&quot;&gt;client_id&lt;/span&gt;&lt;/div&gt;&lt;div style=&quot;text-align: left;&quot;&gt;&lt;span style=&quot;background-color: initial;&quot;&gt;redirect_uri&lt;/span&gt;&lt;/div&gt;&lt;div style=&quot;text-align: left;&quot;&gt;&lt;span style=&quot;background-color: initial;&quot;&gt;client_secret&lt;/span&gt;&lt;/div&gt;&lt;div style=&quot;text-align: left;&quot;&gt;&lt;span style=&quot;background-color: initial;&quot;&gt;scope&lt;/span&gt;&lt;/div&gt;&lt;div style=&quot;text-align: left;&quot;&gt;&lt;span style=&quot;background-color: initial;&quot;&gt;response_type&lt;/span&gt;&lt;/div&gt;&lt;div style=&quot;text-align: left;&quot;&gt;&lt;span style=&quot;background-color: initial;&quot;&gt;state&lt;/span&gt;&lt;/div&gt;" style="text;html=1;align=center;verticalAlign=middle;resizable=0;points=[];autosize=1;strokeColor=none;fillColor=none;fontSize=8;" parent="1" vertex="1">
                    <mxGeometry x="350" y="125" width="80" height="70" as="geometry"/>
                </mxCell>
                <mxCell id="42" value="" style="edgeStyle=elbowEdgeStyle;fontSize=12;html=1;endArrow=blockThin;endFill=1;entryX=-0.288;entryY=0.005;entryDx=0;entryDy=0;entryPerimeter=0;" parent="1" target="35" edge="1">
                    <mxGeometry width="160" relative="1" as="geometry">
                        <mxPoint x="170" y="181" as="sourcePoint"/>
                        <mxPoint x="450" y="210" as="targetPoint"/>
                    </mxGeometry>
                </mxCell>
                <mxCell id="43" value="？" style="edgeLabel;html=1;align=center;verticalAlign=middle;resizable=0;points=[];fontSize=8;" parent="42" vertex="1" connectable="0">
                    <mxGeometry x="-0.3118" y="-1" relative="1" as="geometry">
                        <mxPoint as="offset"/>
                    </mxGeometry>
                </mxCell>
                <mxCell id="44" value="ブラウザに表示" style="html=1;verticalAlign=bottom;endArrow=open;dashed=1;endSize=8;fontSize=8;" parent="1" edge="1">
                    <mxGeometry relative="1" as="geometry">
                        <mxPoint x="290" y="350" as="sourcePoint"/>
                        <mxPoint x="160" y="350" as="targetPoint"/>
                    </mxGeometry>
                </mxCell>
                <mxCell id="46" value="クライアントを承認する" style="edgeStyle=orthogonalEdgeStyle;html=1;align=left;spacingLeft=2;endArrow=block;rounded=0;entryX=1;entryY=0;fontSize=8;" parent="1" edge="1">
                    <mxGeometry relative="1" as="geometry">
                        <mxPoint x="165" y="360" as="sourcePoint"/>
                        <Array as="points">
                            <mxPoint x="195" y="360"/>
                        </Array>
                        <mxPoint x="170" y="380" as="targetPoint"/>
                    </mxGeometry>
                </mxCell>
                <mxCell id="48" value="" style="edgeStyle=elbowEdgeStyle;fontSize=12;html=1;endArrow=blockThin;endFill=1;entryX=-0.288;entryY=0.005;entryDx=0;entryDy=0;entryPerimeter=0;" parent="1" edge="1">
                    <mxGeometry width="160" relative="1" as="geometry">
                        <mxPoint x="170" y="410.15" as="sourcePoint"/>
                        <mxPoint x="292.12" y="409.9999999999999" as="targetPoint"/>
                    </mxGeometry>
                </mxCell>
                <mxCell id="49" value="承認フロー開始" style="edgeLabel;html=1;align=center;verticalAlign=middle;resizable=0;points=[];fontSize=8;" parent="48" vertex="1" connectable="0">
                    <mxGeometry x="-0.3118" y="-1" relative="1" as="geometry">
                        <mxPoint as="offset"/>
                    </mxGeometry>
                </mxCell>
                <mxCell id="51" value="" style="edgeStyle=elbowEdgeStyle;fontSize=12;html=1;endArrow=blockThin;endFill=1;entryX=-0.068;entryY=0.016;entryDx=0;entryDy=0;entryPerimeter=0;" parent="1" target="50" edge="1">
                    <mxGeometry width="160" relative="1" as="geometry">
                        <mxPoint x="310" y="442" as="sourcePoint"/>
                        <mxPoint x="540" y="470" as="targetPoint"/>
                    </mxGeometry>
                </mxCell>
                <mxCell id="53" value="request_id&lt;br&gt;approve" style="text;html=1;align=left;verticalAlign=middle;resizable=0;points=[];autosize=1;strokeColor=none;fillColor=none;fontSize=8;" parent="1" vertex="1">
                    <mxGeometry x="360" y="410" width="60" height="30" as="geometry"/>
                </mxCell>
                <mxCell id="54" value="" style="edgeStyle=elbowEdgeStyle;fontSize=12;html=1;endArrow=blockThin;endFill=1;entryX=0.212;entryY=0.005;entryDx=0;entryDy=0;entryPerimeter=0;" parent="1" edge="1">
                    <mxGeometry width="160" relative="1" as="geometry">
                        <mxPoint x="530" y="458" as="sourcePoint"/>
                        <mxPoint x="708.1200000000002" y="457.99999999999994" as="targetPoint"/>
                    </mxGeometry>
                </mxCell>
                <mxCell id="55" value="&lt;span style=&quot;background-color: rgb(42, 37, 47);&quot;&gt;GET request_id&lt;/span&gt;" style="edgeLabel;html=1;align=center;verticalAlign=middle;resizable=0;points=[];fontSize=8;" parent="54" vertex="1" connectable="0">
                    <mxGeometry x="-0.1325" y="1" relative="1" as="geometry">
                        <mxPoint as="offset"/>
                    </mxGeometry>
                </mxCell>
                <mxCell id="57" value="query" style="html=1;verticalAlign=bottom;endArrow=open;dashed=1;endSize=8;fontSize=8;exitX=0.03;exitY=0.922;exitDx=0;exitDy=0;exitPerimeter=0;entryX=1.018;entryY=0.969;entryDx=0;entryDy=0;entryPerimeter=0;" parent="1" target="52" edge="1">
                    <mxGeometry relative="1" as="geometry">
                        <mxPoint x="705.8000000000001" y="478.45" as="sourcePoint"/>
                        <mxPoint x="524.9999999999999" y="480.00999999999993" as="targetPoint"/>
                    </mxGeometry>
                </mxCell>
                <mxCell id="59" value="" style="edgeStyle=elbowEdgeStyle;fontSize=12;html=1;endArrow=blockThin;endFill=1;entryX=0.212;entryY=0.005;entryDx=0;entryDy=0;entryPerimeter=0;" parent="1" edge="1">
                    <mxGeometry width="160" relative="1" as="geometry">
                        <mxPoint x="530" y="500" as="sourcePoint"/>
                        <mxPoint x="708.1200000000003" y="500" as="targetPoint"/>
                    </mxGeometry>
                </mxCell>
                <mxCell id="60" value="&lt;span style=&quot;background-color: rgb(42, 37, 47);&quot;&gt;DELETE request_id&lt;/span&gt;" style="edgeLabel;html=1;align=center;verticalAlign=middle;resizable=0;points=[];fontSize=8;" parent="59" vertex="1" connectable="0">
                    <mxGeometry x="-0.1325" y="1" relative="1" as="geometry">
                        <mxPoint as="offset"/>
                    </mxGeometry>
                </mxCell>
                <mxCell id="70" value="query.redirect_uriにリダイレクト&lt;br&gt;(code, stateを含めて)" style="html=1;verticalAlign=bottom;endArrow=open;dashed=1;endSize=8;fontSize=8;exitX=-0.062;exitY=0.993;exitDx=0;exitDy=0;exitPerimeter=0;" parent="1" source="50" target="9" edge="1">
                    <mxGeometry relative="1" as="geometry">
                        <mxPoint x="502.82000000000016" y="584" as="sourcePoint"/>
                        <mxPoint x="324" y="584" as="targetPoint"/>
                    </mxGeometry>
                </mxCell>
                <mxCell id="73" value="" style="html=1;points=[];perimeter=orthogonalPerimeter;" parent="1" vertex="1">
                    <mxGeometry x="517.5" y="670" width="10" height="200" as="geometry"/>
                </mxCell>
                <mxCell id="74" value="" style="edgeStyle=elbowEdgeStyle;fontSize=12;html=1;endArrow=blockThin;endFill=1;entryX=-0.068;entryY=0.016;entryDx=0;entryDy=0;entryPerimeter=0;exitX=1.041;exitY=0.502;exitDx=0;exitDy=0;exitPerimeter=0;" parent="1" source="47" edge="1">
                    <mxGeometry width="160" relative="1" as="geometry">
                        <mxPoint x="310.68" y="670" as="sourcePoint"/>
                        <mxPoint x="517.4999999999999" y="670.4" as="targetPoint"/>
                    </mxGeometry>
                </mxCell>
                <mxCell id="75" value="&lt;div style=&quot;text-align: left;&quot;&gt;&lt;span style=&quot;background-color: initial;&quot;&gt;認可コード(code)&lt;/span&gt;&lt;/div&gt;&lt;div style=&quot;text-align: left;&quot;&gt;&lt;span style=&quot;background-color: initial;&quot;&gt;Header&lt;/span&gt;&lt;/div&gt;&lt;div style=&quot;text-align: left;&quot;&gt;&lt;span style=&quot;background-color: initial;&quot;&gt;　Authorization Client_ID:PASS&lt;/span&gt;&lt;/div&gt;" style="text;html=1;align=center;verticalAlign=middle;resizable=0;points=[];autosize=1;strokeColor=none;fillColor=none;fontSize=8;" parent="1" vertex="1">
                    <mxGeometry x="330" y="630" width="140" height="40" as="geometry"/>
                </mxCell>
                <mxCell id="77" value="&lt;font style=&quot;font-size: 8px;&quot;&gt;トークンエンドポイント&lt;br&gt;/token&lt;br&gt;&lt;/font&gt;" style="text;html=1;align=center;verticalAlign=middle;resizable=0;points=[];autosize=1;strokeColor=none;fillColor=none;" parent="1" vertex="1">
                    <mxGeometry x="414" y="670" width="110" height="40" as="geometry"/>
                </mxCell>
                <mxCell id="78" value="" style="html=1;points=[];perimeter=orthogonalPerimeter;" parent="1" vertex="1">
                    <mxGeometry x="709.1" y="690" width="10" height="20" as="geometry"/>
                </mxCell>
                <mxCell id="79" value="" style="edgeStyle=elbowEdgeStyle;fontSize=12;html=1;endArrow=blockThin;endFill=1;entryX=0.212;entryY=0.005;entryDx=0;entryDy=0;entryPerimeter=0;exitX=1.009;exitY=0.63;exitDx=0;exitDy=0;exitPerimeter=0;" parent="1" target="78" edge="1">
                    <mxGeometry width="160" relative="1" as="geometry">
                        <mxPoint x="527.5000000000001" y="690.2" as="sourcePoint"/>
                        <mxPoint x="641.6" y="690" as="targetPoint"/>
                    </mxGeometry>
                </mxCell>
                <mxCell id="80" value="GET client_id" style="text;html=1;align=center;verticalAlign=middle;resizable=0;points=[];autosize=1;strokeColor=none;fillColor=none;fontSize=8;" parent="1" vertex="1">
                    <mxGeometry x="581.6" y="670" width="70" height="20" as="geometry"/>
                </mxCell>
                <mxCell id="81" value="Client" style="html=1;verticalAlign=bottom;endArrow=open;dashed=1;endSize=8;fontSize=8;exitX=0.03;exitY=0.922;exitDx=0;exitDy=0;exitPerimeter=0;" parent="1" source="78" edge="1">
                    <mxGeometry relative="1" as="geometry">
                        <mxPoint x="701.6" y="710" as="sourcePoint"/>
                        <mxPoint x="528.6" y="710" as="targetPoint"/>
                    </mxGeometry>
                </mxCell>
                <mxCell id="82" value="" style="html=1;points=[];perimeter=orthogonalPerimeter;" parent="1" vertex="1">
                    <mxGeometry x="709.1" y="740" width="10" height="20" as="geometry"/>
                </mxCell>
                <mxCell id="83" value="" style="edgeStyle=elbowEdgeStyle;fontSize=12;html=1;endArrow=blockThin;endFill=1;entryX=0.212;entryY=0.005;entryDx=0;entryDy=0;entryPerimeter=0;exitX=1.009;exitY=0.63;exitDx=0;exitDy=0;exitPerimeter=0;" parent="1" target="82" edge="1">
                    <mxGeometry width="160" relative="1" as="geometry">
                        <mxPoint x="527.5" y="740.2" as="sourcePoint"/>
                        <mxPoint x="641.6" y="740" as="targetPoint"/>
                    </mxGeometry>
                </mxCell>
                <mxCell id="84" value="GET code" style="text;html=1;align=center;verticalAlign=middle;resizable=0;points=[];autosize=1;strokeColor=none;fillColor=none;fontSize=8;" parent="1" vertex="1">
                    <mxGeometry x="586.6" y="720" width="60" height="20" as="geometry"/>
                </mxCell>
                <mxCell id="85" value="query" style="html=1;verticalAlign=bottom;endArrow=open;dashed=1;endSize=8;fontSize=8;exitX=0.03;exitY=0.922;exitDx=0;exitDy=0;exitPerimeter=0;" parent="1" source="82" edge="1">
                    <mxGeometry relative="1" as="geometry">
                        <mxPoint x="701.6" y="760" as="sourcePoint"/>
                        <mxPoint x="528.5999999999999" y="760" as="targetPoint"/>
                    </mxGeometry>
                </mxCell>
                <mxCell id="91" value="" style="edgeStyle=elbowEdgeStyle;fontSize=12;html=1;endArrow=blockThin;endFill=1;entryX=0.212;entryY=0.005;entryDx=0;entryDy=0;entryPerimeter=0;" parent="1" edge="1">
                    <mxGeometry width="160" relative="1" as="geometry">
                        <mxPoint x="527.54" y="850" as="sourcePoint"/>
                        <mxPoint x="705.6600000000003" y="850" as="targetPoint"/>
                    </mxGeometry>
                </mxCell>
                <mxCell id="92" value="&lt;span style=&quot;background-color: rgb(42, 37, 47);&quot;&gt;CREATE access_token, client_id&lt;/span&gt;" style="edgeLabel;html=1;align=center;verticalAlign=middle;resizable=0;points=[];fontSize=8;" parent="91" vertex="1" connectable="0">
                    <mxGeometry x="-0.1325" y="1" relative="1" as="geometry">
                        <mxPoint x="12" y="1" as="offset"/>
                    </mxGeometry>
                </mxCell>
                <mxCell id="93" value="JSON access_token, token_type" style="html=1;verticalAlign=bottom;endArrow=open;dashed=1;endSize=8;fontSize=8;exitX=-0.062;exitY=0.993;exitDx=0;exitDy=0;exitPerimeter=0;entryX=1.168;entryY=0.669;entryDx=0;entryDy=0;entryPerimeter=0;" parent="1" edge="1">
                    <mxGeometry relative="1" as="geometry">
                        <mxPoint x="518.6000000000001" y="870" as="sourcePoint"/>
                        <mxPoint x="308.4000000000001" y="871.6800000000001" as="targetPoint"/>
                    </mxGeometry>
                </mxCell>
                <mxCell id="94" value="" style="edgeStyle=elbowEdgeStyle;fontSize=12;html=1;endArrow=blockThin;endFill=1;exitX=0.935;exitY=0.521;exitDx=0;exitDy=0;exitPerimeter=0;" parent="1" edge="1">
                    <mxGeometry width="160" relative="1" as="geometry">
                        <mxPoint x="307.0000000000001" y="930.1" as="sourcePoint"/>
                        <mxPoint x="400" y="930" as="targetPoint"/>
                    </mxGeometry>
                </mxCell>
                <mxCell id="95" value="&lt;div style=&quot;text-align: left;&quot;&gt;&lt;b style=&quot;background-color: initial;&quot;&gt;以降は保護対象リソースへのリクエストとなる&lt;/b&gt;&lt;/div&gt;&lt;b&gt;&lt;div style=&quot;text-align: left;&quot;&gt;&lt;b style=&quot;background-color: initial;&quot;&gt;・トークンイントロスペクションが必要ならもう少しシーケンスが増える。&lt;/b&gt;&lt;/div&gt;&lt;/b&gt;" style="text;html=1;align=center;verticalAlign=middle;resizable=0;points=[];autosize=1;strokeColor=none;fillColor=none;fontSize=8;" parent="1" vertex="1">
                    <mxGeometry x="291.6" y="930" width="290" height="30" as="geometry"/>
                </mxCell>
            </root>
        </mxGraphModel>
    </diagram>
</mxfile>